<svg xmlns="http://www.w3.org/2000/svg" version="1.1" xmlns:xlink="http://www.w3.org/1999/xlink" xmlns:svgjs="http://svgjs.dev/svgjs" width="1000" height="1000" viewBox="0 0 1000 1000"><rect width="1000" height="1000" fill="#fafafa"></rect><g transform="matrix(0.7,0,0,0.7,149.57575757575756,419.132471423722)"><svg viewBox="0 0 396 92" data-background-color="#fafafa" preserveAspectRatio="xMidYMid meet" height="232" width="1000" xmlns="http://www.w3.org/2000/svg" xmlns:xlink="http://www.w3.org/1999/xlink"><g id="tight-bounds" transform="matrix(1,0,0,1,0.2400000000000091,-0.1883458804336442)"><svg viewBox="0 0 395.52 92.3766917608673" height="92.3766917608673" width="395.52"><g><svg viewBox="0 0 535.5196181461115 125.0746629687012" height="92.3766917608673" width="395.52"><g transform="matrix(1,0,0,1,0,17.28600624241819)"><svg viewBox="0 0 395.52 90.50265048386483" height="90.50265048386483" width="395.52"><g id="textblocktransform"><svg viewBox="0 0 395.52 90.50265048386483" height="90.50265048386483" width="395.52" id="textblock"><g><svg viewBox="0 0 395.52 63.22097620008067" height="63.22097620008067" width="395.52"><g transform="matrix(1,0,0,1,0,0)"><svg width="395.52" viewBox="2.08 -37.99 242.05999999999997 38.7" height="63.22097620008067" data-palette-color="#130912"><path d="M10.79-29.39L10.79-25.29 16.65-25.29 16.65-21.61 10.79-21.61 10.79-4.2 14.75-4.2 14.75 0 2.44 0 2.44-4.2 6.25-4.2 6.25-21.61 2.08-21.61 2.08-25.29 6.25-25.29 6.25-29.25Q6.3-31.45 6.88-33.08 7.47-34.72 8.54-35.82 9.62-36.91 11.13-37.45 12.65-37.99 14.5-37.99L14.5-37.99Q15.8-37.99 16.82-37.87 17.85-37.74 18.65-37.54 19.46-37.33 20.08-37.08 20.7-36.84 21.19-36.6L21.19-36.6 19.8-33.35Q19.02-33.76 17.76-34.06 16.5-34.35 15.14-34.35L15.14-34.35Q13.11-34.35 11.95-33.09 10.79-31.84 10.79-29.39L10.79-29.39ZM43.14-12.06L24.92-12.06Q24.92-10.99 25.08-10.1 25.24-9.2 25.53-8.4L25.53-8.4Q26.44-5.96 28.43-4.72 30.42-3.49 32.93-3.49L32.93-3.49Q34.91-3.49 36.78-4.04 38.64-4.59 40.7-5.76L40.7-5.76 42.53-2.66Q40.04-0.95 37.52-0.12 35.01 0.71 32.3 0.71L32.3 0.71Q29.73 0.71 27.55-0.15 25.36-1 23.79-2.69 22.21-4.37 21.32-6.88 20.43-9.4 20.43-12.74L20.43-12.74Q20.43-15.45 21.19-17.86 21.95-20.26 23.45-22.06 24.95-23.85 27.17-24.9 29.39-25.95 32.35-25.95L32.35-25.95Q35.2-25.95 37.12-25.09 39.04-24.22 40.24-22.79 41.45-21.36 42.08-19.53 42.7-17.7 42.94-15.8L42.94-15.8Q43.06-14.87 43.1-13.92 43.14-12.96 43.14-12.06L43.14-12.06ZM32.03-22.14L32.03-22.14Q30.44-22.14 29.26-21.69 28.07-21.24 27.24-20.4 26.41-19.56 25.91-18.33 25.41-17.11 25.17-15.6L25.17-15.6 38.28-15.6Q38.18-17.02 37.83-18.21 37.47-19.41 36.74-20.29 36.01-21.17 34.86-21.66 33.71-22.14 32.03-22.14ZM64.23-33.79L64.23-37.99 72.21-37.99 72.21-4.2 75.92-4.2 75.92 0 67.67 0 67.67-2.08Q66.45-0.83 64.84-0.13 63.23 0.56 61.18 0.56L61.18 0.56Q58.61 0.56 56.4-0.33 54.19-1.22 52.57-2.94 50.95-4.66 50.03-7.17 49.12-9.67 49.12-12.89L49.12-12.89Q49.12-15.82 50-18.23 50.87-20.63 52.49-22.33 54.1-24.02 56.37-24.96 58.64-25.9 61.42-25.9L61.42-25.9Q63.25-25.9 64.77-25.5 66.28-25.1 67.67-24.1L67.67-24.1 67.67-33.79 64.23-33.79ZM61.76-3.39L61.76-3.39Q63.79-3.39 65.16-3.99 66.52-4.59 67.67-5.79L67.67-5.79 67.67-19.95Q66.45-20.97 64.86-21.44 63.28-21.9 61.62-21.9L61.62-21.9Q60-21.9 58.59-21.3 57.17-20.7 56.11-19.56 55.05-18.41 54.44-16.75 53.83-15.09 53.83-12.94L53.83-12.94Q53.83-10.6 54.41-8.81 55-7.03 56.05-5.82 57.1-4.61 58.56-4 60.03-3.39 61.76-3.39ZM98.45-25.44L98.45-19.95 93.82-19.95 93.82-21.51Q93.01-21.51 92.17-21.2 91.33-20.9 90.59-20.28 89.86-19.65 89.31-18.69 88.76-17.72 88.52-16.41L88.52-16.41 88.52-4.2 92.81-4.2 92.81 0 80.27 0 80.27-4.2 83.76-4.2 83.78-21.09 80.27-21.09 80.27-25.29 88.35-25.29 88.35-21.8Q88.79-22.58 89.34-23.25 89.89-23.93 90.56-24.43 91.23-24.93 92.05-25.21 92.86-25.49 93.82-25.49L93.82-25.49Q95.09-25.49 96.21-25.49 97.33-25.49 98.45-25.44L98.45-25.44ZM118.57 0L118.57-2.34Q117.13-1 115.38-0.15 113.64 0.71 111.42 0.71L111.42 0.71Q109.56 0.71 108.01 0.12 106.46-0.46 105.34-1.48 104.21-2.49 103.59-3.83 102.97-5.18 102.97-6.69L102.97-6.69Q102.97-8.3 103.44-9.55 103.92-10.79 104.71-11.71 105.51-12.62 106.57-13.24 107.63-13.87 108.79-14.25 109.95-14.62 111.16-14.78 112.37-14.94 113.47-14.94L113.47-14.94Q115.22-14.94 116.42-14.83 117.62-14.72 118.59-14.53L118.59-14.53 118.62-16.6Q118.62-17.94 118.23-18.93 117.84-19.92 117.13-20.57 116.42-21.22 115.43-21.53 114.44-21.85 113.22-21.85L113.22-21.85Q112.07-21.85 111.03-21.69 109.98-21.53 109.06-21.28 108.14-21.02 107.38-20.69 106.61-20.36 106.07-20L106.07-20 104.58-23.14Q105.48-23.73 106.56-24.23 107.63-24.73 108.82-25.09 110-25.44 111.23-25.65 112.47-25.85 113.66-25.85L113.66-25.85Q115.86-25.85 117.62-25.33 119.37-24.8 120.6-23.71 121.82-22.61 122.48-20.91 123.13-19.21 123.13-16.85L123.13-16.85 123.11-4.2 125.92-4.2 125.92 0 118.57 0ZM112.42-3.1L112.42-3.1Q113.32-3.1 114.22-3.32 115.13-3.54 115.93-3.92 116.74-4.3 117.42-4.8 118.11-5.3 118.57-5.83L118.57-5.83 118.59-11.55 113.32-11.55Q112-11.55 110.92-11.25 109.83-10.96 109.04-10.4 108.24-9.84 107.8-9.01 107.36-8.18 107.36-7.1L107.36-7.1Q107.36-6.1 107.73-5.36 108.1-4.61 108.77-4.11 109.44-3.61 110.37-3.36 111.29-3.1 112.42-3.1ZM128.6 0Q128.6 0 128.6 0ZM150.33-29.39L150.33-25.29 156.19-25.29 156.19-21.61 150.33-21.61 150.33-4.2 154.28-4.2 154.28 0 141.98 0 141.98-4.2 145.79-4.2 145.79-21.61 141.61-21.61 141.61-25.29 145.79-25.29 145.79-29.25Q145.83-31.45 146.42-33.08 147.01-34.72 148.08-35.82 149.15-36.91 150.67-37.45 152.18-37.99 154.04-37.99L154.04-37.99Q155.33-37.99 156.36-37.87 157.38-37.74 158.19-37.54 158.99-37.33 159.62-37.08 160.24-36.84 160.73-36.6L160.73-36.6 159.34-33.35Q158.55-33.76 157.3-34.06 156.04-34.35 154.67-34.35L154.67-34.35Q152.65-34.35 151.49-33.09 150.33-31.84 150.33-29.39L150.33-29.39ZM182.67-12.06L164.46-12.06Q164.46-10.99 164.62-10.1 164.78-9.2 165.07-8.4L165.07-8.4Q165.97-5.96 167.96-4.72 169.95-3.49 172.47-3.49L172.47-3.49Q174.45-3.49 176.31-4.04 178.18-4.59 180.23-5.76L180.23-5.76 182.06-2.66Q179.57-0.95 177.06-0.12 174.54 0.71 171.83 0.71L171.83 0.71Q169.27 0.71 167.08-0.15 164.9-1 163.32-2.69 161.75-4.37 160.86-6.88 159.97-9.4 159.97-12.74L159.97-12.74Q159.97-15.45 160.72-17.86 161.48-20.26 162.98-22.06 164.48-23.85 166.71-24.9 168.93-25.95 171.88-25.95L171.88-25.95Q174.74-25.95 176.65-25.09 178.57-24.22 179.78-22.79 180.99-21.36 181.61-19.53 182.23-17.7 182.48-15.8L182.48-15.8Q182.6-14.87 182.64-13.92 182.67-12.96 182.67-12.06L182.67-12.06ZM171.56-22.14L171.56-22.14Q169.98-22.14 168.79-21.69 167.61-21.24 166.78-20.4 165.95-19.56 165.45-18.33 164.95-17.11 164.7-15.6L164.7-15.6 177.81-15.6Q177.72-17.02 177.36-18.21 177.01-19.41 176.28-20.29 175.54-21.17 174.4-21.66 173.25-22.14 171.56-22.14ZM211.36-12.06L193.14-12.06Q193.14-10.99 193.3-10.1 193.46-9.2 193.75-8.4L193.75-8.4Q194.66-5.96 196.65-4.72 198.64-3.49 201.15-3.49L201.15-3.49Q203.13-3.49 205-4.04 206.86-4.59 208.92-5.76L208.92-5.76 210.75-2.66Q208.26-0.95 205.74-0.12 203.23 0.71 200.52 0.71L200.52 0.71Q197.95 0.71 195.77-0.15 193.58-1 192.01-2.69 190.43-4.37 189.54-6.88 188.65-9.4 188.65-12.74L188.65-12.74Q188.65-15.45 189.41-17.86 190.17-20.26 191.67-22.06 193.17-23.85 195.39-24.9 197.61-25.95 200.57-25.95L200.57-25.95Q203.42-25.95 205.34-25.09 207.26-24.22 208.46-22.79 209.67-21.36 210.29-19.53 210.92-17.7 211.16-15.8L211.16-15.8Q211.28-14.87 211.32-13.92 211.36-12.96 211.36-12.06L211.36-12.06ZM200.25-22.14L200.25-22.14Q198.66-22.14 197.48-21.69 196.29-21.24 195.46-20.4 194.63-19.56 194.13-18.33 193.63-17.11 193.39-15.6L193.39-15.6 206.5-15.6Q206.4-17.02 206.05-18.21 205.69-19.41 204.96-20.29 204.23-21.17 203.08-21.66 201.93-22.14 200.25-22.14ZM232.45-33.79L232.45-37.99 240.43-37.99 240.43-4.2 244.14-4.2 244.14 0 235.89 0 235.89-2.08Q234.67-0.83 233.06-0.13 231.45 0.56 229.4 0.56L229.4 0.56Q226.83 0.56 224.62-0.33 222.41-1.22 220.79-2.94 219.17-4.66 218.25-7.17 217.34-9.67 217.34-12.89L217.34-12.89Q217.34-15.82 218.21-18.23 219.09-20.63 220.71-22.33 222.32-24.02 224.59-24.96 226.86-25.9 229.64-25.9L229.64-25.9Q231.47-25.9 232.99-25.5 234.5-25.1 235.89-24.1L235.89-24.1 235.89-33.79 232.45-33.79ZM229.98-3.39L229.98-3.39Q232.01-3.39 233.38-3.99 234.74-4.59 235.89-5.79L235.89-5.79 235.89-19.95Q234.67-20.97 233.08-21.44 231.5-21.9 229.84-21.9L229.84-21.9Q228.22-21.9 226.81-21.3 225.39-20.7 224.33-19.56 223.27-18.41 222.66-16.75 222.05-15.09 222.05-12.94L222.05-12.94Q222.05-10.6 222.63-8.81 223.22-7.03 224.27-5.82 225.32-4.61 226.78-4 228.25-3.39 229.98-3.39Z" opacity="1" transform="matrix(1,0,0,1,0,0)" fill="#130912" class="wordmark-text-0" data-fill-palette-color="primary" id="text-0"></path></svg></g></svg></g><g transform="matrix(1,0,0,1,163.31020799999996,78.14593137749091)"><svg viewBox="0 0 232.20979200000002 12.356719106373909" height="12.356719106373909" width="232.20979200000002"><g transform="matrix(1,0,0,1,0,0)"><svg width="232.20979200000002" viewBox="1.95 -38.09 916.12 48.760000000000005" height="12.356719106373909" data-palette-color="#130912"><path d="M18.04 0.51L18.04 0.51Q12.7 0.51 9.12-1.83 5.54-4.17 3.75-8.25 1.95-12.33 1.95-17.5L1.95-17.5 1.95-18.02Q1.95-23.24 3.83-27.31 5.71-31.37 9.23-33.72 12.74-36.06 17.63-36.06L17.63-36.06Q21.07-36.06 23.93-34.99 26.78-33.91 28.66-32.25L28.66-32.25 28.66-24.58 24.83-24.58 24.32-30.2Q23.54-30.81 22.52-31.23 21.51-31.64 20.28-31.86 19.04-32.08 17.6-32.08L17.6-32.08Q14.11-32.08 11.69-30.29 9.28-28.49 8.03-25.34 6.79-22.19 6.79-18.07L6.79-18.07 6.79-17.5Q6.79-13.04 8.12-9.88 9.45-6.71 12-5.05 14.55-3.39 18.21-3.39L18.21-3.39Q19.92-3.39 21.56-3.81 23.19-4.22 24.27-4.88L24.27-4.88 24.8-9.84 28.56-9.84 28.56-2.12Q26.56-0.88 23.78-0.18 21 0.51 18.04 0.51ZM45.24 0.51L45.24 0.51Q41.57 0.51 38.93-1.21 36.28-2.93 34.84-5.97 33.4-9.01 33.4-12.92L33.4-12.92 33.4-13.45Q33.4-17.36 34.84-20.4 36.28-23.44 38.93-25.17 41.57-26.9 45.19-26.9L45.19-26.9Q48.85-26.9 51.5-25.17 54.15-23.44 55.59-20.41 57.03-17.38 57.03-13.45L57.03-13.45 57.03-12.92Q57.03-8.98 55.59-5.94 54.15-2.91 51.51-1.2 48.87 0.51 45.24 0.51ZM45.24-3.25L45.24-3.25Q47.53-3.25 49.08-4.5 50.63-5.76 51.43-7.95 52.22-10.13 52.22-12.92L52.22-12.92 52.22-13.45Q52.22-16.24 51.43-18.42 50.63-20.61 49.07-21.86 47.51-23.12 45.19-23.12L45.19-23.12Q42.89-23.12 41.33-21.86 39.77-20.61 38.99-18.42 38.21-16.24 38.21-13.45L38.21-13.45 38.21-12.92Q38.21-10.13 38.99-7.95 39.77-5.76 41.34-4.5 42.92-3.25 45.24-3.25ZM72.77 0L60 0 60-3.08 63.98-3.76 63.98-34.3 60-34.99 60-38.09 68.79-38.09 68.79-3.76 72.77-3.08 72.77 0ZM88.71 0L75.94 0 75.94-3.08 79.92-3.76 79.92-34.3 75.94-34.99 75.94-38.09 84.73-38.09 84.73-3.76 88.71-3.08 88.71 0ZM100.67 0.51L100.67 0.51Q96.55 0.51 94.4-1.5 92.25-3.52 92.25-7.18L92.25-7.18Q92.25-9.69 93.63-11.56 95.01-13.43 97.62-14.47 100.23-15.5 103.87-15.5L103.87-15.5 108.58-15.5 108.58-18.09Q108.58-20.48 107.13-21.8 105.68-23.12 103.04-23.12L103.04-23.12Q101.38-23.12 100.16-22.72 98.94-22.31 97.94-21.61L97.94-21.61 97.43-17.92 93.72-17.92 93.72-23.97Q95.5-25.42 97.87-26.16 100.23-26.9 103.12-26.9L103.12-26.9Q107.92-26.9 110.66-24.61 113.39-22.31 113.39-18.04L113.39-18.04 113.39-5.32Q113.39-4.81 113.41-4.32 113.42-3.83 113.47-3.34L113.47-3.34 116.03-3.08 116.03 0 109.12 0Q108.9-1.07 108.78-1.93 108.66-2.78 108.61-3.64L108.61-3.64Q107.22-1.86 105.13-0.67 103.04 0.51 100.67 0.51ZM101.38-3.52L101.38-3.52Q103.77-3.52 105.75-4.66 107.73-5.81 108.58-7.42L108.58-7.42 108.58-12.21 103.7-12.21Q100.38-12.21 98.72-10.62 97.06-9.03 97.06-7.08L97.06-7.08Q97.06-5.35 98.13-4.43 99.21-3.52 101.38-3.52ZM133.8 0.51L133.8 0.51Q131.21 0.51 129.31-0.48 127.4-1.46 126.13-3.39L126.13-3.39 125.7 0 121.55 0 121.55-34.3 117.57-34.99 117.57-38.09 126.35-38.09 126.35-23.29Q127.6-25.05 129.44-25.98 131.29-26.9 133.75-26.9L133.75-26.9Q137.02-26.9 139.33-25.13 141.64-23.36 142.87-20.17 144.1-16.97 144.1-12.72L144.1-12.72 144.1-12.21Q144.1-8.4 142.87-5.54 141.64-2.69 139.33-1.09 137.02 0.51 133.8 0.51ZM132.58-3.39L132.58-3.39Q135.97-3.39 137.62-5.81 139.27-8.23 139.27-12.21L139.27-12.21 139.27-12.72Q139.27-15.77 138.54-18.08 137.8-20.39 136.32-21.69 134.83-23 132.53-23L132.53-23Q130.31-23 128.78-21.92 127.26-20.85 126.35-19.04L126.35-19.04 126.35-7.37Q127.26-5.54 128.81-4.47 130.36-3.39 132.58-3.39ZM160.63 0.51L160.63 0.51Q156.97 0.51 154.32-1.21 151.67-2.93 150.23-5.97 148.79-9.01 148.79-12.92L148.79-12.92 148.79-13.45Q148.79-17.36 150.23-20.4 151.67-23.44 154.32-25.17 156.97-26.9 160.58-26.9L160.58-26.9Q164.24-26.9 166.89-25.17 169.54-23.44 170.98-20.41 172.42-17.38 172.42-13.45L172.42-13.45 172.42-12.92Q172.42-8.98 170.98-5.94 169.54-2.91 166.9-1.2 164.27 0.51 160.63 0.51ZM160.63-3.25L160.63-3.25Q162.92-3.25 164.47-4.5 166.03-5.76 166.82-7.95 167.61-10.13 167.61-12.92L167.61-12.92 167.61-13.45Q167.61-16.24 166.82-18.42 166.03-20.61 164.46-21.86 162.9-23.12 160.58-23.12L160.58-23.12Q158.29-23.12 156.72-21.86 155.16-20.61 154.38-18.42 153.6-16.24 153.6-13.45L153.6-13.45 153.6-12.92Q153.6-10.13 154.38-7.95 155.16-5.76 156.74-4.5 158.31-3.25 160.63-3.25ZM188.85 0L176.08 0 176.08-3.08 180.06-3.76 180.06-22.63 176.08-23.32 176.08-26.42 184.36-26.42 184.77-23.05 184.82-22.58Q185.94-24.61 187.59-25.76 189.24-26.9 191.36-26.9L191.36-26.9Q192.12-26.9 192.91-26.77 193.71-26.64 194.05-26.51L194.05-26.51 193.42-22.05 190.07-22.24Q188.17-22.36 186.87-21.37 185.58-20.39 184.87-18.73L184.87-18.73 184.87-3.76 188.85-3.08 188.85 0ZM205.52 0.51L205.52 0.51Q201.4 0.51 199.25-1.5 197.1-3.52 197.1-7.18L197.1-7.18Q197.1-9.69 198.48-11.56 199.86-13.43 202.47-14.47 205.08-15.5 208.72-15.5L208.72-15.5 213.43-15.5 213.43-18.09Q213.43-20.48 211.98-21.8 210.53-23.12 207.89-23.12L207.89-23.12Q206.23-23.12 205.01-22.72 203.79-22.31 202.79-21.61L202.79-21.61 202.27-17.92 198.56-17.92 198.56-23.97Q200.35-25.42 202.71-26.16 205.08-26.9 207.96-26.9L207.96-26.9Q212.77-26.9 215.51-24.61 218.24-22.31 218.24-18.04L218.24-18.04 218.24-5.32Q218.24-4.81 218.25-4.32 218.27-3.83 218.31-3.34L218.31-3.34 220.88-3.08 220.88 0 213.97 0Q213.75-1.07 213.63-1.93 213.51-2.78 213.46-3.64L213.46-3.64Q212.06-1.86 209.98-0.67 207.89 0.51 205.52 0.51ZM206.23-3.52L206.23-3.52Q208.62-3.52 210.6-4.66 212.58-5.81 213.43-7.42L213.43-7.42 213.43-12.21 208.55-12.21Q205.23-12.21 203.57-10.62 201.91-9.03 201.91-7.08L201.91-7.08Q201.91-5.35 202.98-4.43 204.06-3.52 206.23-3.52ZM233.94 0.42L233.94 0.42Q231.01 0.42 229.29-1.31 227.57-3.03 227.57-6.81L227.57-6.81 227.57-22.85 223.39-22.85 223.39-26.42 227.57-26.42 227.57-32.79 232.37-32.79 232.37-26.42 238.11-26.42 238.11-22.85 232.37-22.85 232.37-6.81Q232.37-4.91 233.13-4 233.89-3.1 235.16-3.1L235.16-3.1Q236.01-3.1 237.06-3.26 238.11-3.42 238.7-3.54L238.7-3.54 239.36-0.39Q238.31-0.07 236.78 0.17 235.26 0.42 233.94 0.42ZM255.03 0L242.26 0 242.26-3.08 246.24-3.76 246.24-22.63 242.26-23.32 242.26-26.42 251.05-26.42 251.05-3.76 255.03-3.08 255.03 0ZM251.05-32.93L246-32.93 246-38.09 251.05-38.09 251.05-32.93ZM273.53 0L269.31 0 259.91-22.95 257.17-23.32 257.17-26.42 268.26-26.42 268.26-23.32 264.82-22.83 270.68-7.79 271.36-5.66 271.51-5.66 272.29-7.79 277.73-22.83 274.19-23.32 274.19-26.42 285.25-26.42 285.25-23.32 282.47-22.95 273.53 0ZM299.21 0.51L299.21 0.51Q295.55 0.51 292.84-1.16 290.13-2.83 288.65-5.81 287.18-8.79 287.18-12.7L287.18-12.7 287.18-13.77Q287.18-17.53 288.73-20.5 290.28-23.46 292.85-25.18 295.43-26.9 298.48-26.9L298.48-26.9Q302.05-26.9 304.45-25.44 306.85-23.97 308.08-21.33 309.3-18.68 309.3-15.09L309.3-15.09 309.3-12.08 292.16-12.08 292.08-11.96Q292.13-9.42 292.98-7.46 293.82-5.49 295.4-4.37 296.99-3.25 299.21-3.25L299.21-3.25Q301.65-3.25 303.5-3.94 305.34-4.64 306.68-5.86L306.68-5.86 308.56-2.73Q307.15-1.37 304.82-0.43 302.48 0.51 299.21 0.51ZM292.26-15.97L292.3-15.84 304.49-15.84 304.49-16.48Q304.49-18.38 303.82-19.89 303.14-21.39 301.81-22.25 300.48-23.12 298.48-23.12L298.48-23.12Q296.87-23.12 295.55-22.18 294.23-21.24 293.38-19.63 292.52-18.02 292.26-15.97L292.26-15.97ZM338.44 0L325.67 0 325.67-3.08 329.65-3.76 329.65-31.76 325.67-32.45 325.67-35.55 329.65-35.55 334.51-35.55 351.94-7.84 352.09-7.89 352.09-31.76 347.72-32.45 347.72-35.55 356.51-35.55 360.49-35.55 360.49-32.45 356.51-31.76 356.51 0 352.11 0 334.22-27.86 334.07-27.81 334.07-3.76 338.44-3.08 338.44 0ZM376.35 0.51L376.35 0.51Q372.69 0.51 369.98-1.16 367.27-2.83 365.8-5.81 364.32-8.79 364.32-12.7L364.32-12.7 364.32-13.77Q364.32-17.53 365.87-20.5 367.42-23.46 369.99-25.18 372.57-26.9 375.62-26.9L375.62-26.9Q379.19-26.9 381.59-25.44 384-23.97 385.22-21.33 386.44-18.68 386.44-15.09L386.44-15.09 386.44-12.08 369.3-12.08 369.23-11.96Q369.27-9.42 370.12-7.46 370.96-5.49 372.55-4.37 374.13-3.25 376.35-3.25L376.35-3.25Q378.8-3.25 380.64-3.94 382.48-4.64 383.82-5.86L383.82-5.86 385.7-2.73Q384.29-1.37 381.96-0.43 379.63 0.51 376.35 0.51ZM369.4-15.97L369.44-15.84 381.63-15.84 381.63-16.48Q381.63-18.38 380.96-19.89 380.28-21.39 378.95-22.25 377.62-23.12 375.62-23.12L375.62-23.12Q374.01-23.12 372.69-22.18 371.37-21.24 370.52-19.63 369.66-18.02 369.4-15.97L369.4-15.97ZM403.67 0L399.54 0 392.59-22.97 389.63-23.32 389.63-26.42 400.55-26.42 400.55-23.32 397.3-22.78 400.94-9.62 401.77-6.49 401.91-6.49 402.99-9.62 408.72-26.42 412.78-26.42 418.25-9.67 419.42-5.96 419.56-5.96 420.71-9.67 424.4-22.8 421.08-23.32 421.08-26.42 431.75-26.42 431.75-23.32 428.82-22.9 421.98 0 417.42 0 412.07-15.87 410.8-20.12 410.65-20.09 409.41-15.87 403.67 0ZM445.37 0.51L445.37 0.51Q442.71 0.51 440.39-0.02 438.07-0.56 435.46-1.68L435.46-1.68 435.41-7.96 439.04-7.96 439.95-4.17Q441.31-3.61 442.6-3.36 443.88-3.1 445.37-3.1L445.37-3.1Q448.3-3.1 449.57-4.22 450.84-5.35 450.84-7.01L450.84-7.01Q450.84-8.57 449.55-9.66 448.27-10.74 444.9-11.5L444.9-11.5Q440.12-12.6 437.86-14.44 435.6-16.28 435.6-19.36L435.6-19.36Q435.6-21.51 436.85-23.21 438.09-24.9 440.31-25.9 442.54-26.9 445.49-26.9L445.49-26.9Q448.49-26.9 450.63-26.22 452.77-25.54 454.35-24.39L454.35-24.39 454.6-18.36 450.98-18.36 450.2-21.88Q449.35-22.51 448.18-22.85 447-23.19 445.49-23.19L445.49-23.19Q443.24-23.19 441.84-22.14 440.44-21.09 440.44-19.51L440.44-19.51Q440.44-18.58 440.84-17.9 441.24-17.21 442.39-16.66 443.54-16.11 445.76-15.58L445.76-15.58Q451.28-14.28 453.46-12.28 455.65-10.28 455.65-7.35L455.65-7.35Q455.65-4 453.17-1.75 450.69 0.51 445.37 0.51ZM484.99 0L472.22 0 472.22-3.08 476.2-3.76 476.2-31.76 472.22-32.45 472.22-35.55 484.99-35.55 484.99-32.45 481.01-31.76 481.01-3.76 484.99-3.08 484.99 0ZM501.54 0L488.77 0 488.77-3.08 492.75-3.76 492.75-22.63 488.77-23.32 488.77-26.42 497.04-26.42 497.39-22.49Q498.7-24.58 500.69-25.74 502.68-26.9 505.22-26.9L505.22-26.9Q509.5-26.9 511.84-24.4 514.18-21.9 514.18-16.67L514.18-16.67 514.18-3.76 518.16-3.08 518.16 0 505.39 0 505.39-3.08 509.37-3.76 509.37-16.58Q509.37-20.07 507.99-21.53 506.62-23 503.78-23L503.78-23Q501.71-23 500.11-22 498.51-21 497.56-19.26L497.56-19.26 497.56-3.76 501.54-3.08 501.54 0ZM529.9 0.42L529.9 0.42Q526.97 0.42 525.25-1.31 523.53-3.03 523.53-6.81L523.53-6.81 523.53-22.85 519.36-22.85 519.36-26.42 523.53-26.42 523.53-32.79 528.34-32.79 528.34-26.42 534.08-26.42 534.08-22.85 528.34-22.85 528.34-6.81Q528.34-4.91 529.1-4 529.85-3.1 531.12-3.1L531.12-3.1Q531.98-3.1 533.03-3.26 534.08-3.42 534.66-3.54L534.66-3.54 535.32-0.39Q534.27-0.07 532.75 0.17 531.22 0.42 529.9 0.42ZM549.94 0.51L549.94 0.51Q546.28 0.51 543.57-1.16 540.86-2.83 539.39-5.81 537.91-8.79 537.91-12.7L537.91-12.7 537.91-13.77Q537.91-17.53 539.46-20.5 541.01-23.46 543.59-25.18 546.16-26.9 549.21-26.9L549.21-26.9Q552.78-26.9 555.18-25.44 557.59-23.97 558.81-21.33 560.03-18.68 560.03-15.09L560.03-15.09 560.03-12.08 542.89-12.08 542.82-11.96Q542.86-9.42 543.71-7.46 544.55-5.49 546.14-4.37 547.72-3.25 549.94-3.25L549.94-3.25Q552.39-3.25 554.23-3.94 556.07-4.64 557.42-5.86L557.42-5.86 559.3-2.73Q557.88-1.37 555.55-0.43 553.22 0.51 549.94 0.51ZM542.99-15.97L543.04-15.84 555.22-15.84 555.22-16.48Q555.22-18.38 554.55-19.89 553.88-21.39 552.55-22.25 551.21-23.12 549.21-23.12L549.21-23.12Q547.6-23.12 546.28-22.18 544.96-21.24 544.11-19.63 543.26-18.02 542.99-15.97L542.99-15.97ZM576.29 0L563.52 0 563.52-3.08 567.5-3.76 567.5-34.3 563.52-34.99 563.52-38.09 572.31-38.09 572.31-3.76 576.29-3.08 576.29 0ZM592.23 0L579.46 0 579.46-3.08 583.44-3.76 583.44-34.3 579.46-34.99 579.46-38.09 588.25-38.09 588.25-3.76 592.23-3.08 592.23 0ZM608.24 0L595.47 0 595.47-3.08 599.45-3.76 599.45-22.63 595.47-23.32 595.47-26.42 604.26-26.42 604.26-3.76 608.24-3.08 608.24 0ZM604.26-32.93L599.21-32.93 599.21-38.09 604.26-38.09 604.26-32.93ZM623.15 10.67L623.15 10.67Q621.25 10.67 619.03 10.14 616.81 9.62 615.12 8.72L615.12 8.72 616.37 4.98Q617.71 5.69 619.54 6.15 621.37 6.62 623.1 6.62L623.1 6.62Q626.33 6.62 627.83 4.81 629.33 3 629.33-0.34L629.33-0.34 629.33-2.86Q628.04-1.2 626.23-0.34 624.42 0.51 622.08 0.51L622.08 0.51Q618.86 0.51 616.51-1.09 614.17-2.69 612.91-5.55 611.65-8.42 611.65-12.21L611.65-12.21 611.65-12.72Q611.65-16.97 612.91-20.17 614.17-23.36 616.51-25.13 618.86-26.9 622.13-26.9L622.13-26.9Q624.62-26.9 626.5-25.93 628.38-24.95 629.65-23.1L629.65-23.1 630.09-26.42 634.14-26.42 634.14-0.34Q634.14 3.08 632.86 5.54 631.58 8.01 629.12 9.34 626.67 10.67 623.15 10.67ZM623.27-3.39L623.27-3.39Q625.45-3.39 626.91-4.38 628.38-5.37 629.33-7.18L629.33-7.18 629.33-19.34Q628.4-21.02 626.91-22.01 625.42-23 623.32-23L623.32-23Q621.03-23 619.5-21.68 617.98-20.36 617.22-18.05 616.46-15.75 616.46-12.72L616.46-12.72 616.46-12.21Q616.46-8.23 618.15-5.81 619.83-3.39 623.27-3.39ZM637.41-23.34L633.41-22.49 631.53-26.42 637.41-26.42 637.41-23.34ZM651.71 0.51L651.71 0.51Q648.05 0.51 645.34-1.16 642.63-2.83 641.16-5.81 639.68-8.79 639.68-12.7L639.68-12.7 639.68-13.77Q639.68-17.53 641.23-20.5 642.78-23.46 645.35-25.18 647.93-26.9 650.98-26.9L650.98-26.9Q654.55-26.9 656.95-25.44 659.36-23.97 660.58-21.33 661.8-18.68 661.8-15.09L661.8-15.09 661.8-12.08 644.66-12.08 644.59-11.96Q644.63-9.42 645.48-7.46 646.32-5.49 647.91-4.37 649.49-3.25 651.71-3.25L651.71-3.25Q654.16-3.25 656-3.94 657.84-4.64 659.19-5.86L659.19-5.86 661.07-2.73Q659.65-1.37 657.32-0.43 654.99 0.51 651.71 0.51ZM644.76-15.97L644.81-15.84 656.99-15.84 656.99-16.48Q656.99-18.38 656.32-19.89 655.65-21.39 654.31-22.25 652.98-23.12 650.98-23.12L650.98-23.12Q649.37-23.12 648.05-22.18 646.73-21.24 645.88-19.63 645.03-18.02 644.76-15.97L644.76-15.97ZM678.3 0L665.53 0 665.53-3.08 669.51-3.76 669.51-22.63 665.53-23.32 665.53-26.42 673.81-26.42 674.15-22.49Q675.47-24.58 677.46-25.74 679.45-26.9 681.99-26.9L681.99-26.9Q686.26-26.9 688.6-24.4 690.95-21.9 690.95-16.67L690.95-16.67 690.95-3.76 694.93-3.08 694.93 0 682.16 0 682.16-3.08 686.14-3.76 686.14-16.58Q686.14-20.07 684.76-21.53 683.38-23 680.55-23L680.55-23Q678.47-23 676.87-22 675.27-21 674.32-19.26L674.32-19.26 674.32-3.76 678.3-3.08 678.3 0ZM710.01 0.51L710.01 0.51Q706.42 0.51 703.76-1.16 701.1-2.83 699.63-5.81 698.17-8.79 698.17-12.7L698.17-12.7 698.17-13.72Q698.17-17.48 699.59-20.46 701-23.44 703.66-25.17 706.32-26.9 710.01-26.9L710.01-26.9Q713.21-26.9 715.61-25.85 718.02-24.8 719.65-22.97L719.65-22.97 719.78-16.63 716.02-16.63 715.19-21.24Q714.36-22.09 713.11-22.61 711.87-23.12 710.18-23.12L710.18-23.12Q708.03-23.12 706.41-21.85 704.79-20.58 703.88-18.46 702.98-16.33 702.98-13.72L702.98-13.72 702.98-12.7Q702.98-9.81 703.82-7.69 704.66-5.57 706.24-4.41 707.81-3.25 709.99-3.25L709.99-3.25Q712.43-3.25 714.04-4.59 715.65-5.93 716.02-8.28L716.02-8.28 720.34-8.28 720.39-8.13Q720.26-5.86 719.04-3.88 717.82-1.9 715.56-0.7 713.31 0.51 710.01 0.51ZM736.77 0.51L736.77 0.51Q733.1 0.51 730.39-1.16 727.68-2.83 726.21-5.81 724.73-8.79 724.73-12.7L724.73-12.7 724.73-13.77Q724.73-17.53 726.28-20.5 727.83-23.46 730.41-25.18 732.98-26.9 736.03-26.9L736.03-26.9Q739.6-26.9 742-25.44 744.41-23.97 745.63-21.33 746.85-18.68 746.85-15.09L746.85-15.09 746.85-12.08 729.71-12.08 729.64-11.96Q729.69-9.42 730.53-7.46 731.37-5.49 732.96-4.37 734.54-3.25 736.77-3.25L736.77-3.25Q739.21-3.25 741.05-3.94 742.89-4.64 744.24-5.86L744.24-5.86 746.12-2.73Q744.7-1.37 742.37-0.43 740.04 0.51 736.77 0.51ZM729.81-15.97L729.86-15.84 742.04-15.84 742.04-16.48Q742.04-18.38 741.37-19.89 740.7-21.39 739.37-22.25 738.04-23.12 736.03-23.12L736.03-23.12Q734.42-23.12 733.1-22.18 731.79-21.24 730.93-19.63 730.08-18.02 729.81-15.97L729.81-15.97ZM775.95 0L763.18 0 763.18-3.08 767.16-3.76 767.16-31.76 763.18-32.45 763.18-35.55 789.91-35.55 789.91-27 786.05-27 785.52-31.81 771.97-31.81 771.97-19.51 784.98-19.51 784.98-15.72 771.97-15.72 771.97-3.76 775.95-3.08 775.95 0ZM803.41 0.51L803.41 0.51Q799.75 0.51 797.1-1.21 794.45-2.93 793.01-5.97 791.57-9.01 791.57-12.92L791.57-12.92 791.57-13.45Q791.57-17.36 793.01-20.4 794.45-23.44 797.1-25.17 799.75-26.9 803.36-26.9L803.36-26.9Q807.02-26.9 809.67-25.17 812.32-23.44 813.76-20.41 815.2-17.38 815.2-13.45L815.2-13.45 815.2-12.92Q815.2-8.98 813.76-5.94 812.32-2.91 809.68-1.2 807.05 0.51 803.41 0.51ZM803.41-3.25L803.41-3.25Q805.7-3.25 807.25-4.5 808.8-5.76 809.6-7.95 810.39-10.13 810.39-12.92L810.39-12.92 810.39-13.45Q810.39-16.24 809.6-18.42 808.8-20.61 807.24-21.86 805.68-23.12 803.36-23.12L803.36-23.12Q801.06-23.12 799.5-21.86 797.94-20.61 797.16-18.42 796.38-16.24 796.38-13.45L796.38-13.45 796.38-12.92Q796.38-10.13 797.16-7.95 797.94-5.76 799.51-4.5 801.09-3.25 803.41-3.25ZM831.63 0L818.86 0 818.86-3.08 822.84-3.76 822.84-22.63 818.86-23.32 818.86-26.42 827.14-26.42 827.55-23.05 827.6-22.58Q828.72-24.61 830.37-25.76 832.02-26.9 834.14-26.9L834.14-26.9Q834.9-26.9 835.69-26.77 836.49-26.64 836.83-26.51L836.83-26.51 836.19-22.05 832.85-22.24Q830.95-22.36 829.65-21.37 828.36-20.39 827.65-18.73L827.65-18.73 827.65-3.76 831.63-3.08 831.63 0ZM862.26 0L852.08 0 852.08-3.08 854.72-3.44 867.15-35.55 871.27-35.55 883.48-3.44 886.09-3.08 886.09 0 875.89 0 875.89-3.08 878.57-3.54 876.23-10.08 861.99-10.08 859.58-3.54 862.26-3.08 862.26 0ZM868.81-28.56L863.48-14.11 874.76-14.11 869.54-28.56 869.25-29.37 869.1-29.37 868.81-28.56ZM902.13 0L889.36 0 889.36-3.08 893.34-3.76 893.34-34.3 889.36-34.99 889.36-38.09 898.15-38.09 898.15-3.76 902.13-3.08 902.13 0ZM918.07 0L905.3 0 905.3-3.08 909.28-3.76 909.28-34.3 905.3-34.99 905.3-38.09 914.09-38.09 914.09-3.76 918.07-3.08 918.07 0Z" opacity="1" transform="matrix(1,0,0,1,0,0)" fill="#130912" class="slogan-text-1" data-fill-palette-color="secondary" id="text-1"></path></svg></g></svg></g></svg></g></svg></g><g transform="matrix(1,0,0,1,410.44495517741024,0)"><svg viewBox="0 0 125.0746629687012 125.0746629687012" height="125.0746629687012" width="125.0746629687012"><g data-palette-color="#e77917"><rect width="34.18707454477833" height="125.0746629687012" fill="#e77917" stroke="transparent" data-fill-palette-color="accent" x="0" fill-opacity="1"></rect><rect width="34.18707454477833" height="125.0746629687012" fill="#e77917" stroke="transparent" data-fill-palette-color="accent" x="41.6915543229004" fill-opacity="0.75"></rect><rect width="34.18707454477833" height="125.0746629687012" fill="#e77917" stroke="transparent" data-fill-palette-color="accent" x="83.3831086458008" fill-opacity="0.5"></rect></g></svg></g></svg></g><defs></defs></svg><rect width="395.52" height="92.3766917608673" fill="none" stroke="none" visibility="hidden"></rect></g></svg></g></svg>